<?xml version="1.0" encoding="UTF-8"?>
<svg id="Layer_1" data-name="Layer 1" xmlns="http://www.w3.org/2000/svg" viewBox="0 0 47.76 47.76">
  <defs>
    <style>
      .cls-1 {
        fill: #fff;
        stroke-width: 0px;
      }
    </style>
  </defs>
  <path class="cls-1" d="m42.61,5.15v37.46H5.15V5.15h3.15c5.75,0,10.42,4.68,10.42,10.42h10.3c0-2.79,1.08-5.4,3.05-7.37,1.97-1.97,4.59-3.05,7.37-3.05h3.15m5.15-5.15h-8.3c-4.3,0-8.19,1.74-11.01,4.56-2.82,2.82-4.56,6.71-4.56,11.01C23.88,6.97,16.91,0,8.3,0H0v47.76h47.76V0h0Z"/>
  <rect class="cls-1" x="21.3" y="21.55" width="5.15" height="26.66" transform="translate(-11 58.76) rotate(-90)"/>
  <rect class="cls-1" x="10.55" y="20.72" width="5.15" height="6.43"/>
  <rect class="cls-1" x="32.06" y="20.72" width="5.15" height="6.43"/>
</svg>